<svg xmlns="http://www.w3.org/2000/svg" viewBox="0 0 200.44 231.44"><defs><style>.cls-1{fill:#f58c8d;}.cls-2{fill:#e7434c;}.cls-3{fill:#f16365;}.cls-4{fill:#f2f1f1;}</style></defs><title>Asset 2</title><g id="Layer_2" data-name="Layer 2"><g id="Layer_2-2" data-name="Layer 2"><polygon class="cls-1" points="100.22 115.72 0 57.86 100.22 0 200.44 57.86 100.22 115.72"/><polygon class="cls-2" points="200.44 173.58 100.22 231.44 100.22 115.72 200.44 57.86 200.44 173.58"/><polygon class="cls-3" points="100.22 231.44 0.01 173.58 0 57.86 100.22 115.72 100.22 231.44"/><path class="cls-4" d="M68.9,126.57,25.06,101.25v14.47L68.9,141c3.46,2,6.26.38,6.26-3.61A13.84,13.84,0,0,0,68.9,126.57Z"/><path class="cls-4" d="M68.9,170,25.06,144.65v14.46L68.9,184.43c3.46,2,6.26.38,6.26-3.62A13.85,13.85,0,0,0,68.9,170Z"/></g></g></svg>