<svg xmlns="http://www.w3.org/2000/svg" viewBox="0 0 200.53 231.44"><defs><style>.cls-1{fill:#f2f1f1;}.cls-2{fill:#00938c;}.cls-3{fill:#066;}.cls-4{fill:#fff;}.cls-5{fill:#00b2ad;}</style></defs><title>h</title><g id="Layer_2" data-name="Layer 2"><g id="Layer_2-2" data-name="Layer 2"><polygon class="cls-1" points="75.17 216.98 25.06 188.04 25.05 72.32 75.16 101.25 75.17 216.98"/><polygon class="cls-2" points="25.06 188.04 0.01 173.58 0 57.86 25.05 72.32 25.06 188.04"/><polygon class="cls-2" points="100.27 231.44 75.17 216.98 75.16 101.25 100.24 115.72 100.27 231.44"/><polygon class="cls-2" points="0 130.18 0 101.25 100.22 159.12 100.22 188.05 0 130.18"/><polygon class="cls-3" points="200.53 173.58 100.27 231.44 100.24 115.72 200.47 57.86 200.53 173.58"/><polygon class="cls-4" points="100.24 115.72 0 57.86 100.22 0 200.47 57.86 100.24 115.72"/><polygon class="cls-5" points="25.05 72.32 0 57.86 100.22 0 125.28 14.46 25.05 72.32"/><polygon class="cls-5" points="100.24 115.72 75.17 101.25 175.38 43.39 200.47 57.86 100.24 115.72"/></g></g></svg>