<svg xmlns="http://www.w3.org/2000/svg" viewBox="0 0 200.44 231.38"><defs><style>.cls-1{fill:#f2f1f1;}.cls-2{fill:#00938c;}.cls-3{fill:#ef434b;}.cls-4{fill:#bb5859;}.cls-5{fill:#066;}.cls-6{fill:#fff;}.cls-7{fill:#00b2ad;}</style></defs><title>o</title><g id="Layer_2" data-name="Layer 2"><g id="Layer_2-2" data-name="Layer 2"><polygon class="cls-1" points="50.11 202.44 0.01 173.51 0 57.82 50.11 86.72 50.11 202.44"/><polygon class="cls-2" points="100.22 231.38 50.11 202.44 50.11 86.72 100.22 115.67 100.22 231.38"/><path class="cls-3" d="M50.11,86.72V202.44C22.44,186.46,0,147.61,0,115.65S22.43,70.74,50.11,86.72Z"/><path class="cls-4" d="M50.11,202.44V86.72c27.67,16,50.11,54.84,50.11,86.79S77.79,218.42,50.11,202.44Z"/><polygon class="cls-5" points="200.44 173.51 100.22 231.38 100.22 115.67 200.44 57.82 200.44 173.51"/><polygon class="cls-6" points="50.11 86.78 0 57.82 100.22 0 150.33 28.93 50.11 86.78"/><polygon class="cls-7" points="100.22 115.67 50.11 86.78 150.33 28.93 200.44 57.82 100.22 115.67"/></g></g></svg>