<svg xmlns="http://www.w3.org/2000/svg" viewBox="0 0 200.44 231.44"><defs><style>.cls-1{fill:#ddd;}.cls-2{fill:#fff;}.cls-3{fill:#00b2ad;}.cls-4{fill:#f2f1f1;}.cls-5{fill:#00938c;}.cls-6{fill:#f16365;}</style></defs><title>r</title><g id="Layer_2" data-name="Layer 2"><g id="Layer_2-2" data-name="Layer 2"><polygon class="cls-1" points="200.44 173.57 100.22 231.44 100.22 115.72 200.44 57.85 200.44 173.57"/><polygon class="cls-2" points="100.22 115.72 25.05 72.32 125.28 14.46 200.44 57.85 100.22 115.72"/><polygon class="cls-3" points="25.05 72.32 0 57.85 100.22 0 125.28 14.46 25.05 72.32"/><polygon class="cls-4" points="100.22 231.44 25.06 188.04 25.05 72.32 100.22 115.72 100.22 231.44"/><polygon class="cls-5" points="25.06 188.04 0.01 173.57 0 57.85 25.05 72.32 25.06 188.04"/><path class="cls-6" d="M87.54,184.28c7.77-3.46,12.68-12.23,12.68-25.17,0-24-16.83-53.11-37.59-65.09s-37.58-2.27-37.57,21.69c0,20.67,12.51,45.17,29.26,59.22v.1c11.84,9.14,20.85,26.23,20.85,40.55q0,.71,0,1.38l25.07,14.47c0-.46,0-.91,0-1.38C100.22,215.29,95.42,199.05,87.54,184.28Z"/></g></g></svg>