<svg xmlns="http://www.w3.org/2000/svg" viewBox="0 0 200.44 231.44"><defs><style>.cls-1{fill:#f16365;}.cls-2{fill:#f2f1f1;}.cls-3{fill:#f58c8d;}.cls-4{fill:#fff;}.cls-5{fill:#e7434c;}.cls-6{fill:#ddd;}</style></defs><title>x</title><g id="Layer_2" data-name="Layer 2"><g id="Layer_2-2" data-name="Layer 2"><polygon class="cls-1" points="100.22 115.72 100.22 231.44 0.01 173.58 0 57.85 100.22 115.72"/><path class="cls-2" d="M75.16,101.25c0,16-11.22,22.46-25,14.47S25.05,88.3,25.05,72.32Z"/><path class="cls-2" d="M100.22,202.52c-13.83-8-25.06-27.43-25.06-43.4s11.22-22.46,25.06-14.47Z"/><path class="cls-2" d="M0,86.78c13.84,8,25.06,27.43,25.06,43.4S13.84,152.64,0,144.65Z"/><path class="cls-2" d="M25.06,188c0-16,11.22-22.45,25.05-14.47S75.17,201,75.17,217Z"/><polygon class="cls-3" points="25.05 72.32 0 57.85 100.22 0 125.28 14.46 25.05 72.32"/><polygon class="cls-4" points="75.16 101.25 25.05 72.32 125.27 14.46 175.38 43.39 75.16 101.25"/><polygon class="cls-3" points="100.22 115.72 75.17 101.25 175.38 43.39 200.44 57.86 100.22 115.72"/><polygon class="cls-5" points="100.22 144.65 100.22 115.72 200.44 57.86 200.43 86.78 100.22 144.65"/><polygon class="cls-6" points="100.22 202.5 100.22 144.64 200.43 86.78 200.43 144.64 100.22 202.5"/><polygon class="cls-5" points="100.22 231.44 100.22 202.51 200.43 144.65 200.43 173.58 100.22 231.44"/></g></g></svg>