<svg xmlns="http://www.w3.org/2000/svg" viewBox="0 0 200.44 231.44"><defs><style>.cls-1{fill:#f2f1f1;}.cls-2{fill:#f16365;}.cls-3{fill:#ddd;}.cls-4{fill:#fff;}.cls-5{fill:#f58c8d;}</style></defs><g id="Layer_2" data-name="Layer 2"><g id="Layer_2-2" data-name="Layer 2"><polygon class="cls-1" points="100.22 231.44 0.01 173.58 0 57.86 100.22 115.72 100.22 231.44"/><polygon class="cls-2" points="75.17 216.98 50.11 202.51 50.11 173.58 75.17 188.05 75.17 216.98"/><polygon class="cls-2" points="75.16 173.59 50.11 159.12 50.11 86.79 75.16 101.26 75.16 173.59"/><polygon class="cls-3" points="200.44 57.86 200.44 173.58 100.22 231.44 100.22 115.72 200.44 57.86"/><polygon class="cls-4" points="100.22 115.72 0 57.86 100.22 0 200.44 57.86 100.22 115.72"/><polygon class="cls-5" points="75.17 101.25 50.11 86.78 150.33 28.93 175.38 43.39 75.17 101.25"/></g></g></svg>