<svg xmlns="http://www.w3.org/2000/svg" viewBox="0 0 200.44 231.44"><defs><style>.cls-1{fill:#f2f1f1;}.cls-2{fill:#00938c;}.cls-3{fill:#ddd;}.cls-4{fill:#066;}.cls-5{fill:#fff;}.cls-6{fill:#00b2ad;}</style></defs><g id="Layer_2" data-name="Layer 2"><g id="Layer_2-2" data-name="Layer 2"><polygon class="cls-1" points="100.22 231.44 0.01 173.58 0 57.86 100.22 115.72 100.22 231.44"/><polygon class="cls-2" points="100.21 211.46 100.22 231.44 83.1 221.56 0 78.31 0 57.86 17.71 68.08 100.21 211.46"/><polygon class="cls-3" points="100.22 115.72 200.44 57.86 200.44 153.3 100.22 211.16 100.22 115.72"/><polygon class="cls-4" points="200.44 153.3 200.44 173.58 100.22 231.44 100.22 211.16 200.44 153.3"/><polygon class="cls-5" points="117.78 10.14 200.44 57.86 100.22 115.72 17.56 68 117.78 10.14"/><polygon class="cls-6" points="100.22 0 117.78 10.14 17.56 68 0 57.86 100.22 0"/></g></g></svg>