<svg xmlns="http://www.w3.org/2000/svg" viewBox="0 0 200.64 231.44"><defs><style>.cls-1{fill:#fff;}.cls-2{fill:#f2f1f1;}.cls-3{fill:#f16365;}.cls-4{fill:#ddd;}.cls-5{fill:#e7434c;}</style></defs><title>5</title><g id="Layer_2" data-name="Layer 2"><g id="Layer_2-2" data-name="Layer 2"><polygon class="cls-1" points="100.3 115.72 0 57.86 100.22 0 200.58 57.86 100.3 115.72"/><polygon class="cls-2" points="100.32 231.44 0.01 173.58 0 57.86 100.3 115.72 100.32 231.44"/><path class="cls-3" d="M31.32,104.87l68.9,39.78.08-28.93L0,57.86v43.39H0v28.93L68.9,170a13.87,13.87,0,0,1,6.27,10.86c0,2-.7,3.4-1.84,4.05s-2.7.56-4.43-.44L0,144.65v28.93l68.9,39.78c17.29,10,31.31,1.89,31.31-18.08,0-10-3.51-21.05-9.17-30.87S77.55,146,68.9,141l-37.58-21.7a13.85,13.85,0,0,1-6.26-10.85c0-2,.7-3.4,1.83-4.06S29.59,103.87,31.32,104.87Z"/><polygon class="cls-4" points="200.64 173.58 100.32 231.44 100.3 115.72 200.58 57.86 200.64 173.58"/><polygon class="cls-5" points="100.43 144.65 100.3 115.72 200.58 57.86 200.64 86.79 100.43 144.65"/></g></g></svg>