<svg xmlns="http://www.w3.org/2000/svg" viewBox="0 0 200.44 231.44"><defs><style>.cls-1{fill:#f2f1f1;}.cls-2{fill:#00938c;}.cls-3{fill:#fff;}.cls-4{fill:#00b2ad;}.cls-5{fill:#ddd;}.cls-6{fill:#066;}</style></defs><title>4</title><g id="Layer_2" data-name="Layer 2"><g id="Layer_2-2" data-name="Layer 2"><polygon class="cls-1" points="100.22 115.72 100.22 231.44 0.01 173.58 0 57.86 100.22 115.72"/><polygon class="cls-2" points="75.16 101.25 75.17 216.97 50.11 202.51 50.1 86.79 75.16 101.25"/><path class="cls-2" d="M0,57.86v86.79c19.26,11.12,36.81,12.9,50.11,6.83A35.43,35.43,0,0,0,56,148.07c11.9-8.49,19.14-24.58,19.14-46.81Z"/><path class="cls-1" d="M50.1,86.79c0,31.95-22.42,44.91-50.1,28.93V57.86Z"/><polygon class="cls-2" points="100.22 173.58 100.22 202.51 0 144.65 0 115.72 100.22 173.58"/><polygon class="cls-3" points="100.22 115.72 0 57.86 100.22 0 200.44 57.86 100.22 115.72"/><polygon class="cls-4" points="175.38 43.39 75.17 101.25 50.1 86.78 150.32 28.93 175.38 43.39"/><polygon class="cls-5" points="200.43 173.58 100.22 231.44 100.22 115.72 200.44 57.86 200.43 173.58"/><polygon class="cls-6" points="200.44 115.72 200.44 144.65 100.22 202.52 100.22 173.59 200.44 115.72"/></g></g></svg>