<svg xmlns="http://www.w3.org/2000/svg" viewBox="0 0 200.44 231.44"><defs><style>.cls-1{fill:#f58c8d;}.cls-2{fill:#f16365;}.cls-3{fill:#fff;}.cls-4{fill:#00938c;}.cls-5{fill:#ddd;}.cls-6{fill:#e7434c;}</style></defs><title>g</title><g id="Layer_2" data-name="Layer 2"><g id="Layer_2-2" data-name="Layer 2"><polygon class="cls-1" points="100.22 115.71 0 57.86 100.22 0 200.44 57.86 100.22 115.71"/><polygon class="cls-2" points="100.22 231.44 0.01 173.57 0 57.85 100.22 115.72 100.22 231.44"/><path class="cls-2" d="M100.22,173.59c0,10.54-2.44,19-6.7,25-8.67,12.29-24.86,14.58-43.41,3.87C22.44,186.53,0,147.68,0,115.72,0,94.3,10.08,81.42,25.06,80.06c7.37-.67,15.92,1.46,25.05,6.73v57.86Z"/><path class="cls-3" d="M100.22,173.59c0,10.54-2.44,19-6.7,25-8.67,12.29-24.86,14.58-43.41,3.87C22.44,186.53,0,147.68,0,115.72,0,94.3,10.08,81.42,25.06,80.06c7.37-.67,15.92,1.46,25.05,6.73v57.86Z"/><polygon class="cls-4" points="100.21 173.57 100.21 202.5 50.12 173.58 50.12 144.65 100.21 173.57"/><polygon class="cls-5" points="200.44 115.72 100.22 173.58 100.22 115.72 200.44 57.86 200.44 115.72"/><polygon class="cls-6" points="100.22 202.51 100.22 173.58 200.44 115.72 200.44 144.65 100.22 202.51"/><polygon class="cls-5" points="200.44 173.58 100.22 231.44 100.22 202.51 200.44 144.65 200.44 173.58"/></g></g></svg>