<svg xmlns="http://www.w3.org/2000/svg" viewBox="0 0 200.44 231.44"><defs><style>.cls-1{fill:#fff;}.cls-2{fill:#f58c8d;}.cls-3{fill:#f2f1f1;}.cls-4{fill:#f16365;}.cls-5{fill:#ddd;}.cls-6{fill:#e7434c;}</style></defs><title>l</title><g id="Layer_2" data-name="Layer 2"><g id="Layer_2-2" data-name="Layer 2"><polygon class="cls-1" points="100.22 115.72 0 57.86 100.22 0 200.44 57.86 100.22 115.72"/><polygon class="cls-2" points="25.05 72.32 0 57.86 100.22 0 125.27 14.46 25.05 72.32"/><polygon class="cls-3" points="100.22 231.44 0.01 173.58 0 57.86 100.22 115.72 100.22 231.44"/><polygon class="cls-4" points="25.06 188.04 0.01 173.58 0 57.86 25.05 72.32 25.06 188.04"/><polygon class="cls-4" points="0.01 173.58 0 144.65 100.22 202.51 100.22 231.44 0.01 173.58"/><polygon class="cls-5" points="200.44 173.58 100.22 231.44 100.22 115.72 200.44 57.86 200.44 173.58"/><polygon class="cls-6" points="100.22 231.44 100.22 202.51 200.44 144.65 200.44 173.58 100.22 231.44"/></g></g></svg>