<svg xmlns="http://www.w3.org/2000/svg" viewBox="0 0 200.44 231.44"><defs><style>.cls-1{fill:#066;}.cls-2{fill:#00b2ad;}.cls-3{fill:#f58c8d;}.cls-4{fill:#f2f1f1;}.cls-5{fill:#00938c;}.cls-6{fill:#f16365;}</style></defs><title>m</title><g id="Layer_2" data-name="Layer 2"><g id="Layer_2-2" data-name="Layer 2"><polygon class="cls-1" points="200.44 173.58 100.22 231.44 100.22 115.72 200.44 57.86 200.44 173.58"/><polygon class="cls-2" points="30.07 75.21 0 57.86 100.22 0 130.29 17.36 30.07 75.21"/><polygon class="cls-3" points="70.15 98.36 30.07 75.21 130.29 17.36 170.37 40.5 70.15 98.36"/><polygon class="cls-2" points="100.22 115.72 70.15 98.36 170.37 40.5 200.44 57.86 100.22 115.72"/><polygon class="cls-4" points="70.15 98.36 70.16 214.08 30.07 190.94 30.06 75.22 70.15 98.36"/><polygon class="cls-5" points="100.22 231.44 70.16 214.08 70.15 98.36 100.22 115.72 100.22 231.44"/><polygon class="cls-5" points="30.07 190.94 0.01 173.58 0 57.86 30.06 75.22 30.07 190.94"/><path class="cls-6" d="M70.15,121.51V98.36L30.06,75.21V98.36c0,12.78,9,28.32,20.05,34.71s20,1.21,20-11.56Z"/></g></g></svg>