<svg xmlns="http://www.w3.org/2000/svg" viewBox="0 0 200.44 231.44"><defs><style>.cls-1{fill:#e7434c;}.cls-2{fill:#f16365;}.cls-3{fill:#f2f1f1;}.cls-4{fill:#f58c8d;}</style></defs><title>n</title><g id="Layer_2" data-name="Layer 2"><g id="Layer_2-2" data-name="Layer 2"><polygon class="cls-1" points="200.44 57.86 200.44 173.58 100.22 231.44 100.22 115.72 200.44 57.86"/><polygon class="cls-2" points="100.22 231.44 75.17 216.98 75.16 101.26 100.22 115.72 100.22 231.44"/><polygon class="cls-2" points="25.06 188.04 0.01 173.58 0 57.86 25.05 72.32 25.06 188.04"/><polygon class="cls-3" points="75.17 216.98 50.11 202.51 50.11 86.79 75.16 101.26 75.17 216.98"/><polygon class="cls-3" points="50.11 202.51 25.06 188.04 25.05 72.32 50.11 86.79 50.11 202.51"/><polygon class="cls-2" points="100.22 115.72 100.22 144.65 0 86.79 0 57.86 100.22 115.72"/><polygon class="cls-4" points="100.22 115.72 0 57.86 100.22 0 200.44 57.86 100.22 115.72"/></g></g></svg>