<svg xmlns="http://www.w3.org/2000/svg" viewBox="0 0 200.44 231.44"><defs><style>.cls-1{fill:#f2f1f1;}.cls-2{fill:#00938c;}.cls-3{fill:#f16365;}.cls-4{fill:#ddd;}.cls-5{fill:#066;}.cls-6{fill:#fff;}.cls-7{fill:#00b2ad;}</style></defs><g id="Layer_2" data-name="Layer 2"><g id="Layer_2-2" data-name="Layer 2"><polygon class="cls-1" points="0.01 173.58 0 57.86 100.22 115.72 100.22 231.44 0.01 173.58"/><polygon class="cls-2" points="17.31 183.56 0.01 173.58 0 153.81 82.5 105.49 100.22 115.72 100.22 136.18 17.31 183.56"/><ellipse class="cls-3" cx="75.92" cy="189.35" rx="19.84" ry="34.37" transform="translate(-84.5 63.33) rotate(-30)"/><ellipse class="cls-3" cx="24.3" cy="99.95" rx="19.84" ry="34.37" transform="translate(-46.72 25.54) rotate(-30)"/><polygon class="cls-4" points="200.44 173.58 100.22 231.44 100.22 115.72 200.44 57.86 200.44 173.58"/><polygon class="cls-5" points="100.22 136 100.22 115.72 200.44 57.86 200.44 78.14 100.22 136"/><polygon class="cls-6" points="100.22 115.72 0 57.86 100.22 0 200.44 57.86 100.22 115.72"/><polygon class="cls-7" points="100.22 115.72 82.66 105.57 182.88 47.72 200.44 57.86 100.22 115.72"/></g></g></svg>