<svg xmlns="http://www.w3.org/2000/svg" viewBox="0 0 200.44 231.44"><defs><style>.cls-1{fill:#f58c8d;}.cls-2{fill:#f16365;}.cls-3{fill:#f2f1f1;}.cls-4{fill:#00938c;}.cls-5{fill:#e7434c;}.cls-6{fill:#066;}</style></defs><title>q</title><g id="Layer_2" data-name="Layer 2"><g id="Layer_2-2" data-name="Layer 2"><polygon class="cls-1" points="100.22 115.72 0 57.85 100.22 0 200.44 57.86 100.22 115.72"/><polygon class="cls-2" points="100.22 231.44 0.01 173.57 0 57.85 100.22 115.72 100.22 231.44"/><ellipse class="cls-3" cx="50.11" cy="144.65" rx="40.91" ry="70.87" transform="translate(-65.61 44.43) rotate(-30)"/><polygon class="cls-4" points="100.22 173.58 100.22 202.51 50.11 173.58 50.11 144.65 100.22 173.58"/><polygon class="cls-5" points="200.44 115.72 100.22 173.58 100.22 115.72 200.44 57.86 200.44 115.72"/><polygon class="cls-6" points="200.44 115.72 200.44 144.65 100.22 202.51 100.22 173.58 200.44 115.72"/><polygon class="cls-5" points="200.44 173.58 100.22 231.44 100.22 202.51 200.44 144.65 200.44 173.58"/></g></g></svg>