<svg xmlns="http://www.w3.org/2000/svg" viewBox="0 0 200.64 231.44"><defs><style>.cls-1{fill:#f2f1f1;}.cls-2{fill:#00938c;}.cls-3{fill:#fff;}.cls-4{fill:#ddd;}.cls-5{fill:#066;}</style></defs><title>6</title><g id="Layer_2" data-name="Layer 2"><g id="Layer_2-2" data-name="Layer 2"><polygon class="cls-1" points="100.32 231.44 0.01 173.58 0 57.86 100.3 115.72 100.32 231.44"/><path class="cls-2" d="M31.32,104.87l68.9,39.78.08-28.93L26.53,73.18C11.88,64.72,0,71.57,0,88.49v12.76H0v28.92H0v14.47H0c0,8,2.8,16.84,7.34,24.69s10.79,14.71,17.71,18.71l43.33,25c16.13,9.32,30.72,2.58,31.76-15.4.62-10.59-3-22.64-9.1-33.25C85.38,154.6,77.55,146,68.9,141L31.51,119.45a14.91,14.91,0,0,1-6.39-9.92c-.28-2.56.45-4.33,1.77-5.1C28,103.77,29.59,103.87,31.32,104.87Zm-4.43,43c1.13-.66,2.7-.56,4.43.43l37.4,21.6a15,15,0,0,1,6.38,9.82c.3,2.59-.43,4.42-1.77,5.19-1.13.66-2.7.56-4.42-.44L31.06,162.58a14.22,14.22,0,0,1-5.36-7C24.43,151.6,25.14,148.83,26.89,147.83Z"/><polygon class="cls-3" points="100.3 115.72 0 57.86 100.22 0 200.58 57.86 100.3 115.72"/><polygon class="cls-4" points="200.64 173.58 100.32 231.44 100.3 115.72 200.58 57.86 200.64 173.58"/><polygon class="cls-5" points="100.43 144.65 100.3 115.72 200.58 57.86 200.64 86.79 100.43 144.65"/></g></g></svg>