<svg xmlns="http://www.w3.org/2000/svg" viewBox="0 0 200.44 231.44"><defs><style>.cls-1{fill:#f2f1f1;}.cls-2{fill:#f16365;}.cls-3{fill:#ddd;}.cls-4{fill:#e7434c;}.cls-5{fill:#fff;}.cls-6{fill:#f58c8d;}</style></defs><g id="Layer_2" data-name="Layer 2"><g id="Layer_2-2" data-name="Layer 2"><polygon class="cls-1" points="100.22 231.44 0.01 173.58 0 57.86 100.22 115.72 100.22 231.44"/><polygon class="cls-2" points="17.31 183.56 0.01 173.58 0 153.81 82.5 105.49 100.22 115.72 100.22 136.18 17.31 183.56"/><polygon class="cls-3" points="200.44 173.58 100.22 231.44 100.22 115.72 200.44 57.86 200.44 173.58"/><polygon class="cls-4" points="100.22 136 100.22 115.72 200.44 57.86 200.44 78.14 100.22 136"/><polygon class="cls-5" points="100.22 115.72 0 57.86 100.22 0 200.44 57.86 100.22 115.72"/><polygon class="cls-6" points="100.22 115.72 82.66 105.57 182.88 47.72 200.44 57.86 100.22 115.72"/></g></g></svg>