<svg xmlns="http://www.w3.org/2000/svg" viewBox="0 0 200.48 231.37"><defs><style>.cls-1{fill:#f58c8d;}.cls-2{fill:#f16365;}.cls-3{fill:#f2f1f1;}.cls-4{fill:#e7434c;}.cls-5{fill:#ddd;}</style></defs><title>t</title><g id="Layer_2" data-name="Layer 2"><g id="Layer_2-2" data-name="Layer 2"><polygon class="cls-1" points="100.22 115.71 0 57.86 100.22 0 200.44 57.86 100.22 115.71"/><polygon class="cls-2" points="0.02 86.84 0.02 57.91 100.26 115.76 100.26 144.69 0.02 86.84"/><polygon class="cls-2" points="62.65 209.68 37.59 195.22 37.61 79.48 62.67 93.94 62.65 209.68"/><polygon class="cls-3" points="37.59 195.22 0 173.52 0.02 86.84 37.61 108.54 37.59 195.22"/><polygon class="cls-3" points="100.24 231.37 62.65 209.68 62.67 123 100.26 144.69 100.24 231.37"/><polygon class="cls-4" points="200.47 86.79 100.22 144.64 100.22 115.71 200.46 57.86 200.47 86.79"/><polygon class="cls-5" points="200.48 173.47 100.24 231.32 100.22 144.64 200.47 86.79 200.48 173.47"/></g></g></svg>