<svg xmlns="http://www.w3.org/2000/svg" viewBox="0 0 200.44 231.38"><defs><style>.cls-1{fill:#f2f1f1;}.cls-2{fill:#00938c;}.cls-3{fill:#f16365;}.cls-4{fill:#066;}.cls-5{fill:#fff;}.cls-6{fill:#00b2ad;}</style></defs><g id="Layer_2" data-name="Layer 2"><g id="Layer_2-2" data-name="Layer 2"><polygon class="cls-1" points="50.11 202.46 0.01 173.53 0 57.81 50.11 86.74 50.11 202.46"/><polygon class="cls-2" points="50.11 86.74 50.11 202.46 100.22 231.38 100.22 115.67 50.11 86.74"/><path class="cls-3" d="M0,115.67s25.06,43.39,50.11,28.93,50.11,28.93,50.11,28.93,0-37.09-25.06-51.56-25,22.63-25,22.63,0,37.09-25,22.63S0,115.67,0,115.67Z"/><polygon class="cls-4" points="200.44 173.51 100.22 231.38 100.22 115.67 200.44 57.82 200.44 173.51"/><polygon class="cls-5" points="50.11 86.78 0 57.81 100.22 0 150.33 28.93 50.11 86.78"/><polygon class="cls-6" points="100.22 115.67 50.11 86.78 150.33 28.93 200.44 57.82 100.22 115.67"/></g></g></svg>