<svg xmlns="http://www.w3.org/2000/svg" viewBox="0 0 200.44 231.44"><defs><style>.cls-1{fill:#ddd;}.cls-2{fill:#e7434c;}.cls-3{fill:#fff;}.cls-4{fill:#f58c8d;}.cls-5{fill:#f16365;}</style></defs><title>2</title><g id="Layer_2" data-name="Layer 2"><g id="Layer_2-2" data-name="Layer 2"><polygon class="cls-1" points="200.44 144.65 100.22 202.51 100.22 115.72 200.44 57.86 200.44 144.65"/><polygon class="cls-2" points="100.22 231.44 100.22 202.51 200.44 144.65 200.43 173.58 100.22 231.44"/><polygon class="cls-3" points="100.22 115.72 0 57.86 100.22 0 200.44 57.86 100.22 115.72"/><polygon class="cls-4" points="25.05 72.32 0 57.86 100.22 0 125.28 14.46 25.05 72.32"/><polygon class="cls-5" points="100.22 231.44 0.01 173.58 0 57.86 100.22 115.72 100.22 231.44"/><path class="cls-3" d="M0,101.25V86.79l68.9,39.78a13.84,13.84,0,0,1,6.26,10.85c0,4-2.8,5.61-6.26,3.61Z"/><path class="cls-3" d="M100.22,188.05v14.46l-68.9-39.78a13.84,13.84,0,0,1-6.26-10.85c0-4,2.8-5.61,6.26-3.62Z"/></g></g></svg>