<svg xmlns="http://www.w3.org/2000/svg" viewBox="0 0 200.44 231.44"><defs><style>.cls-1{fill:#f2f1f1;}.cls-2{fill:#00938c;}.cls-3{fill:#ddd;}.cls-4{fill:#066;}.cls-5{fill:#fff;}.cls-6{fill:#00b2ad;}</style></defs><title>y</title><g id="Layer_2" data-name="Layer 2"><g id="Layer_2-2" data-name="Layer 2"><polygon class="cls-1" points="100.22 231.44 0 173.58 0 57.86 100.22 115.72 100.22 231.44"/><polygon class="cls-2" points="82.5 105.49 50.11 124.2 17.71 68.08 0 57.86 0 78.31 32.39 134.42 32.39 134.42 32.4 175.33 32.4 192.28 67.83 212.74 67.83 195.79 67.83 154.88 67.83 154.87 100.22 136.17 100.22 115.72 82.5 105.49"/><polygon class="cls-3" points="200.43 173.58 100.22 231.44 100.22 115.72 200.44 57.86 200.43 173.58"/><polygon class="cls-4" points="100.22 115.72 100.22 136.17 200.44 78.31 200.44 57.86 100.22 115.72"/><polygon class="cls-5" points="82.5 105.49 17.71 68.08 117.93 10.23 182.72 47.63 82.5 105.49"/><polygon class="cls-6" points="82.5 105.49 100.22 115.72 200.44 57.86 182.72 47.63 82.5 105.49"/><polygon class="cls-6" points="0 57.86 17.71 68.08 117.93 10.23 100.22 0 0 57.86"/></g></g></svg>