<svg xmlns="http://www.w3.org/2000/svg" viewBox="0 0 200.44 231.45"><defs><style>.cls-1{fill:#f16365;}.cls-2{fill:#fff;}.cls-3{fill:#ddd;}.cls-4{fill:#e7434c;}.cls-5{fill:#f2f1f1;}</style></defs><title>z</title><g id="Layer_2" data-name="Layer 2"><g id="Layer_2-2" data-name="Layer 2"><polygon class="cls-1" points="25.06 72.32 0 57.86 100.22 0 125.28 14.46 25.06 72.32"/><polygon class="cls-2" points="100.22 115.71 25.06 72.32 125.28 14.46 200.44 57.86 100.22 115.71"/><polygon class="cls-3" points="200.43 144.65 100.22 202.52 100.22 115.72 200.44 57.86 200.43 144.65"/><polygon class="cls-4" points="100.22 231.45 100.22 202.52 200.43 144.65 200.43 173.58 100.22 231.45"/><polygon class="cls-5" points="100.21 115.72 100.22 231.45 0.01 173.58 0 57.86 100.21 115.72"/><path class="cls-1" d="M50.11,159.11c13.84,8,26.37,8.75,35.43,3.51,6.23-3.59,10.83-10,13.1-18.87a55.31,55.31,0,0,0,1.57-13.56V115.72L0,57.86V86.79l71.8,41.46c-4.33,6.15-12.43,7.28-21.69,1.93-13.84-8-26.36-8.74-35.43-3.5-6.23,3.6-10.83,10-13.1,18.88A55.23,55.23,0,0,0,0,159.11v14.47l100.21,57.87V202.51L28.41,161.05C32.75,154.91,40.84,153.76,50.11,159.11Z"/></g></g></svg>