<svg xmlns="http://www.w3.org/2000/svg" viewBox="0 0 200.44 231.44"><defs><style>.cls-1{fill:#00b2ad;}.cls-2{fill:#066;}.cls-3{fill:#00938c;}.cls-4{fill:#fff;}</style></defs><title>3</title><g id="Layer_2" data-name="Layer 2"><g id="Layer_2-2" data-name="Layer 2"><polygon class="cls-1" points="100.22 115.72 0 57.86 100.22 0 200.44 57.86 100.22 115.72"/><polygon class="cls-2" points="200.44 173.58 100.22 231.44 100.22 115.72 200.44 57.86 200.44 173.58"/><polygon class="cls-3" points="100.22 231.44 0 173.58 0 57.86 100.22 115.72 100.22 231.44"/><path class="cls-4" d="M0,101.25V86.79l69.74,40.26a12,12,0,0,1,5.42,9.4v1.94c0,3.46-2.43,4.86-5.42,3.13Z"/><path class="cls-4" d="M0,144.65V130.18l69.74,40.27a12,12,0,0,1,5.42,9.39v1.94c0,3.46-2.42,4.86-5.42,3.13Z"/></g></g></svg>