<svg xmlns="http://www.w3.org/2000/svg" viewBox="0 0 200.44 231.44"><defs><style>.cls-1{fill:#fff;}.cls-2{fill:#ddd;}.cls-3{fill:#066;}.cls-4{fill:#f2f1f1;}.cls-5{fill:#00938c;}</style></defs><title>Asset 1</title><g id="Layer_2" data-name="Layer 2"><g id="Layer_2-2" data-name="Layer 2"><polygon class="cls-1" points="100.22 115.72 0 57.86 100.22 0 200.44 57.86 100.22 115.72"/><polygon class="cls-2" points="200.43 173.58 100.22 231.44 100.22 115.72 200.44 57.86 200.43 173.58"/><polygon class="cls-3" points="100.22 173.25 200.44 115.38 200.43 144.31 100.22 202.18 100.22 173.25"/><polygon class="cls-4" points="100.22 231.44 0.01 173.58 0 57.86 100.22 115.72 100.22 231.44"/><path class="cls-5" d="M50.1,86.79c-27.67-16-50.1-3-50.1,28.92v57.87l25,14.46V130.18c0-16,11.22-22.46,25.06-14.47s25,27.42,25,43.4V217l25,14.46V173.58C100.22,141.62,77.78,102.77,50.1,86.79Z"/><polygon class="cls-5" points="50.11 144.65 100.22 173.58 100.22 202.51 50.11 173.58 50.11 144.65"/></g></g></svg>