<svg xmlns="http://www.w3.org/2000/svg" viewBox="0 0 200.44 231.44"><defs><style>.cls-1{fill:#fff;}.cls-2{fill:#f2f1f1;}.cls-3{fill:#f16365;}.cls-4{fill:#ddd;}.cls-5{fill:#e7434c;}</style></defs><title>c</title><g id="Layer_2" data-name="Layer 2"><g id="Layer_2-2" data-name="Layer 2"><polygon class="cls-1" points="100.22 115.72 0 57.86 100.22 0 200.44 57.86 100.22 115.72"/><polygon class="cls-2" points="100.22 231.44 0 173.58 0 57.86 100.22 115.72 100.22 231.44"/><path class="cls-3" d="M50.11,115.73l43.41,25.06,6.69,3.87V115.72L50.11,86.79C22.43,70.81,0,83.76,0,115.72s22.44,70.81,50.11,86.79l50.11,28.93V202.51l-6.7-3.86L50.11,173.58c-13.84-8-25-27.41-25-43.39S36.27,107.74,50.11,115.73Z"/><polygon class="cls-4" points="200.43 144.65 100.22 202.51 100.22 144.65 200.44 86.79 200.43 144.65"/><polygon class="cls-5" points="100.22 115.72 200.44 57.86 200.44 86.79 100.22 144.65 100.22 115.72"/><polygon class="cls-5" points="100.22 202.51 200.43 144.65 200.43 173.58 100.22 231.44 100.22 202.51"/></g></g></svg>