<svg xmlns="http://www.w3.org/2000/svg" viewBox="0 0 200.44 231.44"><defs><style>.cls-1{fill:#f2f1f1;}.cls-2{fill:#f16365;}.cls-3{fill:#00938c;}.cls-4{fill:#ddd;}.cls-5{fill:#fff;}</style></defs><title>d</title><g id="Layer_2" data-name="Layer 2"><g id="Layer_2-2" data-name="Layer 2"><polygon class="cls-1" points="100.22 231.44 0.01 173.58 0 57.86 100.22 115.72 100.22 231.44"/><path class="cls-2" d="M50.11,173.57,6.7,148.51,0,144.64v28.94l50.1,28.93c27.68,16,50.11,3,50.11-28.93S77.78,102.77,50.11,86.79L0,57.86V86.78l6.7,3.87,43.41,25.07c13.83,8,25,27.41,25,43.39S64,181.56,50.11,173.57Z"/><polygon class="cls-3" points="0.01 173.58 0 57.86 25.05 72.32 25.06 188.04 0.01 173.58"/><polygon class="cls-4" points="200.44 57.86 200.44 173.58 100.22 231.44 100.22 115.72 200.44 57.86"/><polygon class="cls-5" points="100.22 115.72 0 57.86 100.22 0 200.44 57.86 100.22 115.72"/><polygon class="cls-3" points="0 57.86 100.22 0 125.27 14.46 25.05 72.32 0 57.86"/></g></g></svg>