<svg xmlns="http://www.w3.org/2000/svg" viewBox="0 0 200.44 231.44"><defs><style>.cls-1{fill:#f2f1f1;}.cls-2{fill:#00938c;}.cls-3{fill:#fff;}.cls-4{fill:#00b2ad;}.cls-5{fill:#ddd;}.cls-6{fill:#066;}</style></defs><title>e</title><g id="Layer_2" data-name="Layer 2"><g id="Layer_2-2" data-name="Layer 2"><polygon class="cls-1" points="100.22 231.44 25.05 188.04 25.04 72.32 100.22 115.72 100.22 231.44"/><polygon class="cls-2" points="100.22 144.65 100.22 115.72 25.05 72.32 0 57.86 0 86.79 0 101.25 0 130.18 0 144.65 0.01 173.58 25.06 188.04 100.22 231.44 100.22 202.51 25.06 159.11 25.06 144.65 50.11 159.11 50.11 130.18 25.06 115.72 25.05 101.25 100.22 144.65"/><polygon class="cls-3" points="100.22 115.72 25.05 72.32 125.27 14.46 200.44 57.86 100.22 115.72"/><polygon class="cls-4" points="25.05 72.32 0 57.86 100.22 0 125.27 14.46 25.05 72.32"/><polygon class="cls-5" points="200.44 173.58 100.22 231.44 100.22 115.72 200.44 57.86 200.44 173.58"/><polygon class="cls-6" points="100.22 144.65 100.22 115.72 200.44 57.86 200.44 86.79 100.22 144.65"/><polygon class="cls-6" points="100.22 231.44 100.22 202.51 200.44 144.65 200.44 173.58 100.22 231.44"/></g></g></svg>