<svg xmlns="http://www.w3.org/2000/svg" viewBox="0 0 200.41 231.45"><defs><style>.cls-1{fill:#f16365;}.cls-2{fill:#f2f1f1;}.cls-3{fill:#f58c8d;}.cls-4{fill:#e7434c;}</style></defs><title>8</title><g id="Layer_2" data-name="Layer 2"><g id="Layer_2-2" data-name="Layer 2"><polygon class="cls-1" points="100.22 231.45 0.03 173.59 0 57.86 100.21 115.72 100.22 231.45"/><path class="cls-2" d="M25.08,108.37h0c0-4,2.81-5.61,6.26-3.62l37.59,21.7a13.88,13.88,0,0,1,6.26,10.85c0,4-2.81,5.62-6.26,3.62l-37.59-21.7A13.88,13.88,0,0,1,25.08,108.37Z"/><path class="cls-2" d="M25.08,151.89h0c0-4,2.81-5.61,6.27-3.61L68.93,170a13.85,13.85,0,0,1,6.26,10.85c0,4-2.8,5.62-6.26,3.62l-37.58-21.7A13.85,13.85,0,0,1,25.08,151.89Z"/><polygon class="cls-3" points="100.21 115.72 0 57.86 100.19 0 200.41 57.86 100.21 115.72"/><polygon class="cls-4" points="200.41 173.58 100.22 231.45 100.21 115.72 200.41 57.86 200.41 173.58"/></g></g></svg>