<svg xmlns="http://www.w3.org/2000/svg" viewBox="0 0 200.44 231.33"><defs><style>.cls-1{fill:#ddd;}.cls-2{fill:#066;}.cls-3{fill:#fff;}.cls-4{fill:#f16365;}.cls-5{fill:#f2f1f1;}.cls-6{fill:#00938c;}</style></defs><title>f</title><g id="Layer_2" data-name="Layer 2"><g id="Layer_2-2" data-name="Layer 2"><polygon class="cls-1" points="200.43 173.47 100.22 231.33 100.22 144.54 200.44 86.67 200.43 173.47"/><polygon class="cls-2" points="100.22 144.54 100.22 115.64 200.44 57.8 200.44 86.67 100.22 144.54"/><polygon class="cls-3" points="100.22 115.64 25.06 72.32 125.28 14.46 200.44 57.8 100.22 115.64"/><polygon class="cls-4" points="25.06 72.32 0 57.78 100.22 0 125.28 14.46 25.06 72.32"/><polygon class="cls-5" points="100.22 231.33 25.06 187.93 25.05 72.21 100.22 115.64 100.22 231.33"/><polygon class="cls-6" points="0 86.67 0 57.78 100.22 115.64 100.22 144.54 0 86.67"/><polygon class="cls-4" points="25.06 159 25.05 130.07 62.64 151.77 62.64 180.7 25.06 159"/><polygon class="cls-4" points="25.06 187.93 0 173.47 0 57.78 25.05 72.21 25.06 187.93"/></g></g></svg>