<svg xmlns="http://www.w3.org/2000/svg" viewBox="0 0 200.44 231.44"><defs><style>.cls-1{fill:#f2f1f1;}.cls-2{fill:#00938c;}.cls-3{fill:#ddd;}.cls-4{fill:#066;}.cls-5{fill:#fff;}.cls-6{fill:#00b2ad;}</style></defs><g id="Layer_2" data-name="Layer 2"><g id="Layer_2-2" data-name="Layer 2"><polygon class="cls-1" points="100.22 231.44 0.01 173.58 0 57.86 100.22 115.72 100.22 231.44"/><polygon class="cls-2" points="37.59 195.28 12.53 180.81 12.53 65.09 37.58 79.56 37.59 195.28"/><polygon class="cls-2" points="87.69 224.21 62.64 209.74 62.63 94.02 87.69 108.49 87.69 224.21"/><polygon class="cls-2" points="0 101.25 0 72.32 100.22 130.19 100.22 159.12 0 101.25"/><polygon class="cls-2" points="0 159.11 0 130.18 100.22 188.05 100.22 216.98 0 159.11"/><polygon class="cls-3" points="200.44 173.58 100.22 231.44 100.22 115.72 200.44 57.86 200.44 173.58"/><polygon class="cls-4" points="100.22 216.98 100.22 188.05 200.44 130.18 200.44 159.11 100.22 216.98"/><polygon class="cls-4" points="100.22 159.12 100.22 130.19 200.44 72.32 200.44 101.25 100.22 159.12"/><polygon class="cls-5" points="100.22 115.71 0 57.86 100.22 0 200.44 57.86 100.22 115.71"/><polygon class="cls-6" points="87.69 108.48 62.64 94.02 162.86 36.16 187.91 50.63 87.69 108.48"/><polygon class="cls-6" points="37.58 79.55 12.53 65.09 112.75 7.23 137.8 21.7 37.58 79.55"/></g></g></svg>