<svg xmlns="http://www.w3.org/2000/svg" viewBox="0 0 200.44 231.44"><defs><style>.cls-1{fill:#f2f1f1;}.cls-2{fill:#f16365;}.cls-3{fill:#ddd;}.cls-4{fill:#e7434c;}.cls-5{fill:#fff;}.cls-6{fill:#f58c8d;}</style></defs><title>k</title><g id="Layer_2" data-name="Layer 2"><g id="Layer_2-2" data-name="Layer 2"><polygon class="cls-1" points="100.22 115.72 100.22 231.44 0.01 173.58 0 57.86 100.22 115.72"/><polygon class="cls-2" points="25.06 188.04 0.01 173.58 0 57.86 25.06 72.32 25.06 188.04"/><path class="cls-2" d="M50.11,144.65c0,16,11.22,35.4,25.06,43.39l25,14.46v28.94L75.17,217c-27.68-16-50.11-54.83-50.11-86.79s22.43-44.91,50.1-28.93l25.06,14.47v28.93L75.16,130.18C61.33,122.19,50.11,128.67,50.11,144.65Z"/><polygon class="cls-3" points="200.44 173.58 100.22 231.44 100.23 115.72 200.44 57.85 200.44 173.58"/><polygon class="cls-4" points="200.44 57.85 200.44 86.78 100.22 144.65 100.23 115.72 200.44 57.85"/><polygon class="cls-4" points="100.22 231.44 100.22 202.51 200.44 144.65 200.44 173.58 100.22 231.44"/><polygon class="cls-5" points="100.22 115.71 0 57.86 100.22 0 200.44 57.86 100.22 115.71"/><polygon class="cls-6" points="25.05 72.32 0 57.86 100.22 0 125.27 14.46 25.05 72.32"/></g></g></svg>