<svg xmlns="http://www.w3.org/2000/svg" viewBox="0 0 200.44 231.44"><defs><style>.cls-1{fill:#ddd;}.cls-2{fill:#f2f1f1;}.cls-3{fill:#00938c;}.cls-4{fill:#fff;}.cls-5{fill:#00b2ad;}</style></defs><title>1</title><g id="Layer_2" data-name="Layer 2"><g id="Layer_2-2" data-name="Layer 2"><polygon class="cls-1" points="200.44 173.58 100.22 231.44 100.22 115.72 200.44 57.86 200.44 173.58"/><polygon class="cls-2" points="100.22 231.44 0.01 173.58 0 57.86 100.22 115.72 100.22 231.44"/><polygon class="cls-3" points="75.17 216.98 50.11 202.51 50.11 86.79 75.16 101.25 75.17 216.98"/><path class="cls-3" d="M50.1,86.79c0,8-5.6,11.23-12.52,7.23V123c20.75,12,37.58,2.27,37.58-21.7Z"/><polygon class="cls-4" points="100.22 115.72 0 57.86 100.22 0 200.44 57.86 100.22 115.72"/><polygon class="cls-5" points="75.17 101.25 50.11 86.78 150.33 28.93 175.38 43.39 75.17 101.25"/></g></g></svg>