<svg xmlns="http://www.w3.org/2000/svg" viewBox="0 0 200.44 231.44"><defs><style>.cls-1{fill:#fff;}.cls-2{fill:#e7434c;}.cls-3{fill:#ddd;}.cls-4{fill:#f16365;}.cls-5{fill:#f2f1f1;}</style></defs><title>s</title><g id="Layer_2" data-name="Layer 2"><g id="Layer_2-2" data-name="Layer 2"><polygon class="cls-1" points="100.22 115.72 0 57.86 100.22 0 200.44 57.86 100.22 115.72"/><polygon class="cls-2" points="200.43 173.58 100.22 231.44 100.22 144.65 200.43 86.79 200.43 173.58"/><polygon class="cls-3" points="200.43 86.79 100.22 144.65 100.22 115.72 200.44 57.86 200.43 86.79"/><polygon class="cls-4" points="100.22 231.44 0.01 173.58 0 115.72 100.22 173.58 100.22 231.44"/><polygon class="cls-5" points="100.22 173.58 0 115.72 0 57.86 100.22 115.72 100.22 173.58"/><path class="cls-4" d="M100.22,144.49s0-28.93-50.11-57.86S0,86.62,0,86.62s-.81,28.47,50.11,57.87,50.11,57.86,50.11,57.86Z"/><path class="cls-5" d="M0,144.65s0,28.93,50.11,57.86,50.11,0,50.11,0,.81-28.46-50.11-57.86S0,86.79,0,86.79Z"/></g></g></svg>