<svg xmlns="http://www.w3.org/2000/svg" viewBox="0 0 200.44 231.44"><defs><style>.cls-1{fill:#fff;}.cls-2{fill:#f2f1f1;}.cls-3{fill:#00938c;}.cls-4{fill:#ddd;}.cls-5{fill:#066;}</style></defs><title>7</title><g id="Layer_2" data-name="Layer 2"><g id="Layer_2-2" data-name="Layer 2"><polygon class="cls-1" points="100.22 115.72 0 57.86 100.22 0 200.44 57.86 100.22 115.72"/><polygon class="cls-2" points="100.22 231.44 0.01 173.58 0 57.86 100.22 115.72 100.22 231.44"/><polygon class="cls-3" points="0 86.79 0 57.86 100.22 115.72 100.22 144.65 0 86.79"/><polygon class="cls-3" points="50.11 144.65 75.16 159.12 75.17 216.98 50.11 202.51 50.11 144.65"/><path class="cls-3" d="M100.22,115.72v28.93c-13.84-8-25-1.51-25,14.47L50.11,144.65C50.11,112.69,72.54,99.74,100.22,115.72Z"/><polygon class="cls-3" points="25.06 159.11 25.06 130.18 100.22 173.58 100.22 202.51 25.06 159.11"/><polygon class="cls-4" points="200.44 173.58 100.22 231.44 100.22 115.72 200.44 57.86 200.44 173.58"/><polygon class="cls-5" points="100.22 202.51 100.22 173.58 200.44 115.72 200.44 144.65 100.22 202.51"/></g></g></svg>