<svg xmlns="http://www.w3.org/2000/svg" viewBox="0 0 200.44 231.44"><defs><style>.cls-1{fill:#e7434c;}.cls-2{fill:#f16365;}.cls-3{fill:#f2f1f1;}.cls-4{fill:#f58c8d;}.cls-5{fill:#fff;}</style></defs><title>u</title><g id="Layer_2" data-name="Layer 2"><g id="Layer_2-2" data-name="Layer 2"><polygon class="cls-1" points="200.44 173.58 100.22 231.44 100.22 115.72 200.44 57.86 200.44 173.58"/><polygon class="cls-2" points="0 57.86 25.05 72.32 25.06 188.04 0.01 173.58 0 57.86"/><polygon class="cls-2" points="75.16 101.25 100.22 115.72 100.22 231.44 75.17 216.98 75.16 101.25"/><polygon class="cls-3" points="25.05 72.32 50.11 86.79 50.11 202.51 25.06 188.04 25.05 72.32"/><polygon class="cls-3" points="50.11 86.79 75.16 101.25 75.17 216.98 50.11 202.51 50.11 86.79"/><polygon class="cls-2" points="0.01 173.58 0 144.65 100.22 202.51 100.22 231.44 0.01 173.58"/><polygon class="cls-4" points="25.05 72.32 0 57.86 100.22 0 125.28 14.46 25.05 72.32"/><polygon class="cls-4" points="100.22 115.72 75.17 101.25 175.38 43.39 200.44 57.86 100.22 115.72"/><polygon class="cls-5" points="50.11 86.78 25.05 72.32 125.28 14.46 150.33 28.93 50.11 86.78"/><polygon class="cls-5" points="75.17 101.25 50.11 86.78 150.33 28.93 175.38 43.39 75.17 101.25"/></g></g></svg>