<svg xmlns="http://www.w3.org/2000/svg" viewBox="0 0 200.44 231.43"><defs><style>.cls-1{fill:#f2f1f1;}.cls-2{fill:#f16365;}.cls-3{fill:#00938c;}.cls-4{fill:#f58c8d;}.cls-5{fill:#e7434c;}</style></defs><title>w</title><g id="Layer_2" data-name="Layer 2"><g id="Layer_2-2" data-name="Layer 2"><polygon class="cls-1" points="0 57.85 0.01 173.57 25.06 188.04 0 57.85"/><polygon class="cls-2" points="100.22 115.71 100.22 231.44 75.17 216.97 100.22 115.71"/><polygon class="cls-2" points="50.11 86.78 25.06 188.04 0 57.85 50.11 86.78"/><polygon class="cls-1" points="100.22 115.71 75.17 216.97 50.11 86.78 100.22 115.71"/><polygon class="cls-3" points="25.06 188.04 50.11 86.78 75.17 216.97 25.06 188.04"/><polygon class="cls-4" points="0 57.85 100.22 0 150.33 28.93 50.11 86.78 0 57.85"/><polygon class="cls-1" points="50.11 86.78 150.33 28.93 200.44 57.85 100.22 115.71 50.11 86.78"/><polygon class="cls-5" points="200.43 173.57 100.22 231.43 100.22 115.71 200.44 57.85 200.43 173.57"/></g></g></svg>