<svg xmlns="http://www.w3.org/2000/svg" viewBox="0 0 200.44 231.44"><defs><style>.cls-1{fill:#f2f1f1;}.cls-2{fill:#00938c;}.cls-3{fill:#f16365;}.cls-4{fill:#bb5859;}.cls-5{fill:#ddd;}.cls-6{fill:#00b2ad;}</style></defs><title>0</title><g id="Layer_2" data-name="Layer 2"><g id="Layer_2-2" data-name="Layer 2"><polygon class="cls-1" points="100.22 231.44 0.01 173.58 0 57.85 100.22 115.72 100.22 231.44"/><polygon class="cls-2" points="50.11 202.51 0.01 173.58 0 57.85 50.11 86.79 50.11 202.51"/><path class="cls-3" d="M50.11,86.79V202.51C22.44,186.53,0,147.67,0,115.72S22.43,70.81,50.11,86.79Z"/><path class="cls-4" d="M50.11,202.51V86.79c27.67,16,50.11,54.84,50.11,86.79S77.79,218.49,50.11,202.51Z"/><polygon class="cls-5" points="200.44 57.85 200.43 173.58 100.22 231.44 100.22 115.72 200.44 57.85"/><polygon class="cls-6" points="0 57.85 100.22 0 150.33 28.93 50.11 86.78 0 57.85"/><polygon class="cls-1" points="50.11 86.78 150.33 28.93 200.44 57.85 100.22 115.72 50.11 86.78"/></g></g></svg>